<svg elementtiming="1" width="20" height="20" viewBox="0 0 16 16" fill="none" xmlns="http://www.w3.org/2000/svg" focusable="false"><defs elementtiming="1"><radialGradient elementtiming="1" id="paint0_radial_3678_5504_entra" cx="0" cy="0" r="1" gradientUnits="userSpaceOnUse" gradientTransform="translate(8.44343 0.860016) rotate(101.468) scale(8.79842 9.79357)"><stop elementtiming="1" stop-color="#66DFFF"></stop><stop elementtiming="1" offset="1" stop-color="#0296E6"></stop></radialGradient><linearGradient elementtiming="1" id="paint1_linear_3678_5504_entra" x1="7.20346" y1="13.83" x2="4.51846" y2="10.2634" gradientUnits="userSpaceOnUse"><stop elementtiming="1" stop-color="#0086E2"></stop><stop elementtiming="1" offset="1" stop-color="#0086E2" stop-opacity="0"></stop></linearGradient><linearGradient elementtiming="1" id="paint2_linear_3678_5504_entra" x1="-1.27707" y1="4.27055" x2="1.75536" y2="9.47221" gradientUnits="userSpaceOnUse"><stop elementtiming="1" stop-color="#CDFAFF"></stop><stop elementtiming="1" offset="1" stop-color="#45DDFB"></stop></linearGradient></defs><path elementtiming="1" d="M8.40902 2.05478C5.32123 2.05478 2.81664 5.11537 2.81664 7.38397V14.3712C2.81664 14.9952 3.46744 15.5 4.26896 15.5H12.5477C13.3506 15.5 14 14.9942 14 14.3712V6.16167C14 3.89308 11.4968 2.05478 8.40902 2.05478Z" fill="#0059C9"></path><g elementtiming="1" opacity="0.5"><path elementtiming="1" d="M7.90445 15.5L11.4579 13.388C12.0371 13.0544 12.5069 12.3257 12.5069 11.7601V6.90845C12.5069 3.8377 10.6985 1.64729 8.46842 2.93099C6.23837 4.21545 4.42995 6.55745 4.42995 9.29679L4.42918 15.5H7.90445Z" fill="black" fill-opacity="0.5"></path><path elementtiming="1" d="M4.67921 15.25L4.67995 9.29682V9.29679C4.67995 6.67123 6.41689 4.40116 8.59315 3.14766L4.67921 15.25ZM4.67921 15.25H7.83577L11.3301 13.1731L11.3331 13.1713L11.3331 13.1714C11.5827 13.0276 11.8175 12.7925 11.9895 12.5256C12.163 12.2564 12.2569 11.9797 12.2569 11.7601V6.90845C12.2569 5.41413 11.8157 4.169 11.1425 3.4588C10.8085 3.1065 10.4219 2.88943 10.003 2.82629C9.58482 2.76328 9.11029 2.84998 8.5932 3.14763L4.67921 15.25Z" stroke="black" stroke-opacity="0.25" stroke-width="0.5"></path></g><path elementtiming="1" d="M7.0108 1.2491C4.69522 2.58507 2.81744 5.02099 2.81744 7.87019L2.81664 14.4354C2.81664 15.5 4.13516 15.6775 4.74481 15.3226L10.1149 12.1255C10.7164 11.7785 11.2042 11.0206 11.2042 10.4322V5.38606C11.2042 2.19216 9.32638 -0.0860853 7.0108 1.2491Z" fill="url(#paint0_radial_3678_5504_entra)"></path><path elementtiming="1" d="M7.0108 1.2491C4.69522 2.58507 2.81744 5.02099 2.81744 7.87019L2.81664 14.4354C2.81664 15.5 4.13516 15.6775 4.74481 15.3226L10.1149 12.1255C10.7164 11.7785 11.2042 11.0206 11.2042 10.4322V5.38606C11.2042 2.19216 9.32638 -0.0860853 7.0108 1.2491Z" fill="url(#paint1_linear_3678_5504_entra)" fill-opacity="0.6"></path><g elementtiming="1" opacity="0.5"><path elementtiming="1" d="M2.81703 11.137C2.834 11.793 3.38143 12.0061 4.05399 11.6109L7.10512 9.86098C7.96903 9.36551 8.49999 8.45789 8.49999 7.47661V4.62972C8.49999 2.51193 7.63003 1.34762 6.38539 1.77527C6.23461 1.82708 6.08455 1.89374 5.93611 1.97417C4.98776 2.71545 4.171 3.65146 3.61148 4.72229C3.12214 5.78569 2.81754 7.03799 2.81754 8.33507L2.81703 11.137Z" fill="black" fill-opacity="0.2"></path><path elementtiming="1" d="M3.92962 11.394L3.92961 11.394L3.92734 11.3953C3.62545 11.5727 3.40334 11.5825 3.27948 11.5348C3.17598 11.495 3.0744 11.3879 3.06703 11.1336L3.06754 8.33512V8.33507C3.06754 7.07856 3.36231 5.86393 3.83596 4.83251C4.37386 3.80522 5.15869 2.90265 6.0734 2.1842C6.20464 2.11423 6.33597 2.0566 6.46663 2.01171C6.73513 1.91945 6.96713 1.91794 7.16469 1.98116C7.36287 2.04457 7.5475 2.17992 7.70873 2.39701C8.03633 2.83814 8.24999 3.59642 8.24999 4.62972V7.47661C8.24999 8.36667 7.76839 9.19239 6.98075 9.64411L3.92962 11.394Z" stroke="black" stroke-opacity="0.1" stroke-width="0.5"></path></g><path elementtiming="1" d="M5.40793 0.589966C3.65309 1.23716 2.00088 4.14516 2.00088 7.31383L2 10.1534C2 10.8511 2.52914 11.0831 3.1816 10.6716L6.09522 8.8779C6.92019 8.37004 7.42722 7.43972 7.42722 6.4339V3.51581C7.42722 1.34505 6.59647 0.151622 5.40793 0.589966Z" fill="url(#paint2_linear_3678_5504_entra)"></path></svg>