<svg elementtiming="1" width="20" height="20" viewBox="0 0 20 20" xmlns="http://www.w3.org/2000/svg" class="serviceSvgIconStyles-584 ___1yjlmar f1w7gpdv fez10in f1kxrtqx" fill="currentColor" aria-hidden="true" focusable="false"><path elementtiming="1" d="M8.2 1.92L3.5 4.63A3 3 0 002 7.23v5.54a3 3 0 001.5 2.6l2.27 1.3.22-.67 4.25-2.54-1.74-1A3 3 0 017 9.85V8.27l.47-.59L9 6.49V3l-.68-.99-.73.53a3 3 0 01.6-.62z" fill="url(#paint0_linear_1_160)"></path><path elementtiming="1" d="M8.2 1.92L3.5 4.63A3 3 0 002 7.23v5.54a3 3 0 001.5 2.6l2.27 1.3.22-.67 4.25-2.54-1.74-1A3 3 0 017 9.85V8.27l.47-.59L9 6.49V3l-.68-.99-.73.53a3 3 0 01.6-.62z" fill="url(#paint1_linear_1_160)"></path><path elementtiming="1" d="M13 7.62v2.24a3 3 0 01-1.5 2.6l-5 2.88a3 3 0 01-3 0l-.3-.17.3.2 5 2.88a3 3 0 003 0l5-2.88a3 3 0 001.5-2.6v-2.08l-5-3.07z" fill="url(#paint2_radial_1_160)"></path><path elementtiming="1" d="M13 7.62v2.24a3 3 0 01-1.5 2.6l-5 2.88a3 3 0 01-3 0l-.3-.17.3.2 5 2.88a3 3 0 003 0l5-2.88a3 3 0 001.5-2.6v-2.08l-5-3.07z" fill="url(#paint3_linear_1_160)"></path><path elementtiming="1" d="M8.2 1.92l.3-.17a3 3 0 013 0l5 2.88a3 3 0 011.5 2.6v5.6a3 3 0 00-1.5-2.54l-5-2.88a3 3 0 00-3 0L7 8.27V4.32a3 3 0 011.2-2.4z" fill="url(#paint4_radial_1_160)"></path><path elementtiming="1" d="M8.2 1.92l.3-.17a3 3 0 013 0l5 2.88a3 3 0 011.5 2.6v5.6a3 3 0 00-1.5-2.54l-5-2.88a3 3 0 00-3 0L7 8.27V4.32a3 3 0 011.2-2.4z" fill="url(#paint5_linear_1_160)"></path><defs elementtiming="1"><linearGradient elementtiming="1" id="paint0_linear_1_160" x1="9.09" y1="5.83" x2="4.74" y2="18.49" gradientUnits="userSpaceOnUse"><stop elementtiming="1" stop-color="#AE7FE2"></stop><stop elementtiming="1" offset="1" stop-color="#0078D4"></stop></linearGradient><linearGradient elementtiming="1" id="paint1_linear_1_160" x1="7.44" y1="15.22" x2="6.69" y2="13.89" gradientUnits="userSpaceOnUse"><stop elementtiming="1" offset="1" stop-color="#114A8B"></stop><stop elementtiming="1" offset="1" stop-color="#0078D4" stop-opacity="0"></stop></linearGradient><linearGradient elementtiming="1" id="paint3_linear_1_160" x1="15.83" y1="9.85" x2="15.11" y2="11" gradientUnits="userSpaceOnUse"><stop elementtiming="1" offset="1" stop-color="#493474"></stop><stop elementtiming="1" offset="1" stop-color="#8C66BA" stop-opacity="0"></stop></linearGradient><linearGradient elementtiming="1" id="paint5_linear_1_160" x1="7.02" y1="5.56" x2="8.18" y2="5.56" gradientUnits="userSpaceOnUse"><stop elementtiming="1" offset="1" stop-color="#114A8B"></stop><stop elementtiming="1" offset="1" stop-color="#0078D4" stop-opacity="0"></stop></linearGradient><radialGradient elementtiming="1" id="paint2_radial_1_160" cx="0" cy="0" r="1" gradientUnits="userSpaceOnUse" gradientTransform="matrix(12.44626 -2.8892 2.22564 9.58779 5.15 14.76)"><stop elementtiming="1" offset="0.14" stop-color="#D59DFF"></stop><stop elementtiming="1" offset="1" stop-color="#5E438F"></stop></radialGradient><radialGradient elementtiming="1" id="paint4_radial_1_160" cx="0" cy="0" r="1" gradientUnits="userSpaceOnUse" gradientTransform="rotate(-143.08 10 2.4) scale(11.412)"><stop elementtiming="1" stop-color="#50E6FF"></stop><stop elementtiming="1" offset="1" stop-color="#436DCD"></stop></radialGradient></defs></svg>